<?xml version="1.0" encoding="UTF-8" standalone="no"?>
<!DOCTYPE svg PUBLIC "-//W3C//DTD SVG 1.1//EN" "http://www.w3.org/Graphics/SVG/1.1/DTD/svg11.dtd">
<svg width="100%" height="100%" viewBox="0 0 591 591" version="1.1" xmlns="http://www.w3.org/2000/svg" xmlns:xlink="http://www.w3.org/1999/xlink" xml:space="preserve" xmlns:serif="http://www.serif.com/" style="fill-rule:evenodd;clip-rule:evenodd;stroke-linejoin:round;stroke-miterlimit:2;">
    <g transform="matrix(0.877775,0,0,0.877775,-1484.43,12.7174)">
        <path d="M2143.5,340.1C2219.4,461.9 2107.9,513 2083,524C2059.1,534.5 2046.2,559.1 2046.2,581.8C2046.2,616.9 2074.7,645.4 2109.8,645.4C2169,645.4 2222.2,557.2 2222.2,489.7C2222.1,399.7 2143.5,340.1 2143.5,340.1Z" style="fill:rgb(235,0,85);fill-rule:nonzero;"/>
    </g>
    <g transform="matrix(0.877775,0,0,0.877775,-1484.43,12.7174)">
        <path d="M2362.2,334.3C2362.2,176.1 2224.8,4 2111.3,4C2044.9,4 1990.9,57.7 1990.9,124.1C1990.9,180.9 2030.2,228.4 2083.1,241C2130.5,252.6 2332.5,287.1 2289.3,569.5C2289.3,569.5 2362.2,474.7 2362.2,334.3Z" style="fill:rgb(235,0,85);fill-rule:nonzero;"/>
    </g>
    <g transform="matrix(0.877775,0,0,0.877775,-1484.43,12.7174)">
        <path d="M1694.3,607.5C1671.9,351.1 1861.6,277.1 1971.5,277.1C2052.9,277.1 2089.7,327.6 2089.7,378.6C2089.7,448.8 2017.1,497.1 1954.5,470.7C1877.6,438.1 1736.3,421.8 1694.3,607.5Z" style="fill:rgb(235,0,85);fill-rule:nonzero;"/>
    </g>
</svg>
